<svg xmlns="http://www.w3.org/2000/svg" viewBox="0 0 900 560" role="img" aria-labelledby="title desc">
  <title id="title">Presentation folders mockup</title>
  <desc id="desc">A mild blue and white set of branded presentation folders with documents.</desc>
  <defs>
    <linearGradient id="bg" x1="0" y1="0" x2="1" y2="1">
      <stop offset="0" stop-color="#ffffff"/>
      <stop offset="1" stop-color="#edf5f9"/>
    </linearGradient>
    <filter id="shadow" x="-20%" y="-20%" width="140%" height="140%">
      <feDropShadow dx="0" dy="18" stdDeviation="18" flood-color="#3f6f8f" flood-opacity=".20"/>
    </filter>
  </defs>
  <rect width="900" height="560" fill="url(#bg)"/>
  <path d="M0 430c180-64 260-58 410-18 154 41 280 37 490-42v190H0z" fill="#3f6f8f" opacity=".07"/>
  <g filter="url(#shadow)">
    <path d="M250 120h170l36 45h196c24 0 44 20 44 44v222c0 24-20 44-44 44H250c-24 0-44-20-44-44V164c0-24 20-44 44-44z" fill="#fff" stroke="#d7e5ec" stroke-width="3"/>
    <path d="M214 218h466v213c0 20-16 36-36 36H250c-20 0-36-16-36-36z" fill="#3f6f8f"/>
    <rect x="270" y="265" width="150" height="18" rx="9" fill="#fff"/>
    <rect x="270" y="305" width="270" height="10" rx="5" fill="#fff" opacity=".62"/>
    <rect x="270" y="334" width="225" height="10" rx="5" fill="#fff" opacity=".45"/>
    <rect x="270" y="385" width="90" height="58" rx="10" fill="#fff" opacity=".18"/>
  </g>
  <g filter="url(#shadow)" transform="rotate(-8 470 275)">
    <rect x="448" y="82" width="160" height="240" rx="10" fill="#fff" stroke="#d7e5ec" stroke-width="3"/>
    <rect x="475" y="114" width="85" height="12" rx="6" fill="#3f6f8f"/>
    <rect x="475" y="154" width="98" height="8" rx="4" fill="#3f6f8f" opacity=".20"/>
    <rect x="475" y="178" width="80" height="8" rx="4" fill="#3f6f8f" opacity=".16"/>
  </g>
</svg>
