<svg xmlns="http://www.w3.org/2000/svg" viewBox="0 0 900 560" role="img" aria-labelledby="title desc">
  <title id="title">Branded merchandise mockup</title>
  <desc id="desc">A mild blue and white corporate merchandise set including a tote bag, mug, notebook, and pen.</desc>
  <defs>
    <linearGradient id="bg" x1="0" y1="0" x2="1" y2="1">
      <stop offset="0" stop-color="#eef5f9"/>
      <stop offset=".7" stop-color="#ffffff"/>
    </linearGradient>
    <filter id="shadow" x="-20%" y="-20%" width="140%" height="140%">
      <feDropShadow dx="0" dy="18" stdDeviation="18" flood-color="#3f6f8f" flood-opacity=".18"/>
    </filter>
  </defs>
  <rect width="900" height="560" fill="url(#bg)"/>
  <circle cx="170" cy="115" r="105" fill="#3f6f8f" opacity=".07"/>
  <circle cx="725" cy="430" r="135" fill="#3f6f8f" opacity=".08"/>
  <g filter="url(#shadow)">
    <path d="M170 196h190l35 270H135z" fill="#fff" stroke="#d7e5ec" stroke-width="3"/>
    <path d="M214 199c7-64 95-64 102 0" fill="none" stroke="#3f6f8f" stroke-width="16" stroke-linecap="round"/>
    <rect x="202" y="300" width="126" height="18" rx="9" fill="#3f6f8f"/>
    <rect x="220" y="336" width="90" height="10" rx="5" fill="#3f6f8f" opacity=".22"/>
  </g>
  <g filter="url(#shadow)">
    <rect x="444" y="145" width="178" height="250" rx="18" fill="#fff" stroke="#d7e5ec" stroke-width="3"/>
    <rect x="476" y="184" width="88" height="15" rx="7.5" fill="#3f6f8f"/>
    <rect x="476" y="222" width="116" height="9" rx="4.5" fill="#3f6f8f" opacity=".20"/>
    <rect x="476" y="249" width="96" height="9" rx="4.5" fill="#3f6f8f" opacity=".16"/>
    <rect x="476" y="320" width="70" height="48" rx="10" fill="#3f6f8f" opacity=".12"/>
  </g>
  <g filter="url(#shadow)">
    <path d="M650 245h86c34 0 61 27 61 61v23c0 34-27 61-61 61h-86z" fill="none" stroke="#3f6f8f" stroke-width="18"/>
    <rect x="604" y="226" width="142" height="190" rx="26" fill="#fff" stroke="#d7e5ec" stroke-width="3"/>
    <rect x="637" y="308" width="75" height="16" rx="8" fill="#3f6f8f"/>
  </g>
  <g filter="url(#shadow)" transform="rotate(-16 500 440)">
    <rect x="390" y="430" width="270" height="22" rx="11" fill="#3f6f8f"/>
    <rect x="635" y="430" width="50" height="22" rx="11" fill="#fff" stroke="#d7e5ec" stroke-width="3"/>
  </g>
</svg>
