<svg xmlns="http://www.w3.org/2000/svg" viewBox="0 0 900 560" role="img" aria-labelledby="title desc">
  <title id="title">Letterheads and envelopes branding mockup</title>
  <desc id="desc">A white and mild blue stationery set with letterhead sheets and envelopes.</desc>
  <defs>
    <linearGradient id="bg" x1="0" y1="0" x2="1" y2="1">
      <stop offset="0" stop-color="#eef5f9"/>
      <stop offset="1" stop-color="#ffffff"/>
    </linearGradient>
    <filter id="shadow" x="-20%" y="-20%" width="140%" height="140%">
      <feDropShadow dx="0" dy="18" stdDeviation="18" flood-color="#3f6f8f" flood-opacity=".18"/>
    </filter>
  </defs>
  <rect width="900" height="560" fill="url(#bg)"/>
  <circle cx="735" cy="110" r="120" fill="#3f6f8f" opacity=".08"/>
  <circle cx="120" cy="455" r="150" fill="#3f6f8f" opacity=".06"/>
  <g filter="url(#shadow)">
    <rect x="180" y="70" width="330" height="420" rx="12" fill="#fff" stroke="#d7e5ec" stroke-width="3"/>
    <rect x="210" y="108" width="86" height="16" rx="8" fill="#3f6f8f"/>
    <rect x="210" y="145" width="240" height="9" rx="4.5" fill="#3f6f8f" opacity=".22"/>
    <rect x="210" y="170" width="210" height="9" rx="4.5" fill="#3f6f8f" opacity=".18"/>
    <rect x="210" y="232" width="250" height="10" rx="5" fill="#3f6f8f" opacity=".18"/>
    <rect x="210" y="260" width="230" height="10" rx="5" fill="#3f6f8f" opacity=".14"/>
    <rect x="210" y="288" width="265" height="10" rx="5" fill="#3f6f8f" opacity=".14"/>
    <rect x="210" y="430" width="120" height="11" rx="5.5" fill="#3f6f8f" opacity=".30"/>
  </g>
  <g filter="url(#shadow)">
    <rect x="390" y="225" width="330" height="205" rx="14" fill="#fff" stroke="#d7e5ec" stroke-width="3"/>
    <path d="M396 236l159 120 159-120" fill="none" stroke="#3f6f8f" stroke-width="5" opacity=".28"/>
    <rect x="432" y="334" width="118" height="15" rx="7.5" fill="#3f6f8f"/>
    <rect x="432" y="365" width="190" height="9" rx="4.5" fill="#3f6f8f" opacity=".20"/>
  </g>
  <g transform="translate(600 92)">
    <rect width="105" height="105" rx="24" fill="#3f6f8f"/>
    <path d="M30 57h45M30 42h45M30 72h30" stroke="#fff" stroke-width="8" stroke-linecap="round"/>
  </g>
</svg>
