<svg xmlns="http://www.w3.org/2000/svg" viewBox="0 0 512 512" fill="none">
  <!-- Rounded rectangle background with white fill and a clean border matching the theme -->
  <rect x="24" y="24" width="464" height="464" rx="116" fill="#ffffff" stroke="#3F6F8F" stroke-width="24" stroke-opacity="0.24"/>
  <!-- Centered printer icon in theme color #3F6F8F -->
  <g transform="translate(80, 80)">
    <path d="M88 0C63.7 0 44 19.7 44 44v66h264V44c0-24.3-19.7-44-44-44H88zm44 44h88c6.1 0 11 4.9 11 11s-4.9 11-11 11h-88c-6.1 0-11-4.9-11-11s4.9-11 11-11zm220 88H0v132c0 24.3 19.7 44 44 44h33v44c0 24.3 19.7 44 44 44h121c24.3 0 44-19.7 44-44v-44h33c24.3 0 44-19.7 44-44V132zm-55 220H110c-6.1 0-11-4.9-11-11v-55h176v55c0 6.1-4.9 11-11 11zm33-154c-9.1 0-16.5-7.4-16.5-16.5s7.4-16.5 16.5-16.5 16.5 7.4 16.5 16.5-7.4 16.5-16.5 16.5z" fill="#3F6F8F"/>
  </g>
</svg>
